<?xml version="1.0" standalone="no"?><!DOCTYPE svg PUBLIC "-//W3C//DTD SVG 1.1//EN" "http://www.w3.org/Graphics/SVG/1.1/DTD/svg11.dtd"><svg class="icon" width="32px" height="32.00px" viewBox="0 0 1024 1024" version="1.1" xmlns="http://www.w3.org/2000/svg"><path d="M218.2 588.6a343.3 343.3 0 1 0 686.6 0 343.3 343.3 0 1 0-686.6 0Z" fill="#C5E5FF" /><path d="M511 960c-90.5 0-178.8-27.5-254.6-80.2-98.3-68.3-164-170.8-185.2-288.5-21.2-117.8 4.8-236.7 73-334.9 68.3-98.3 170.7-164 288.5-185.2 114.2-20.5 230.4 3.5 327.1 67.7 4.4 2.9 5.6 8.8 2.7 13.2-2.9 4.4-8.8 5.6-13.2 2.7C656.8 93.3 545.5 70.3 436.1 90c-112.7 20.3-210.8 83.3-276.2 177.3-65.4 94-90.2 207.9-69.9 320.6s83.3 210.8 177.3 276.2c94.1 65.4 207.9 90.2 320.7 69.9 112.7-20.3 210.8-83.3 276.2-177.3 65.4-94.1 90.2-208 69.9-320.7-11.1-61.9-35-119.3-70.9-170.4-3-4.3-2-10.3 2.3-13.3s10.3-2 13.3 2.3c37.5 53.4 62.4 113.3 74 178 21.2 117.8-4.8 236.7-73 334.9-68.3 98.3-170.7 164-288.5 185.2-26.8 4.9-53.6 7.3-80.3 7.3z" fill="#3B94FF" /><path d="M282.9 755.4c-3.7 0-7.3-1.5-10.1-4.2-4.2-4.2-5.4-10.3-3-15.8l137.1-318.6c1.9-4.5 5.5-8 10-10l318.6-137.2c5.4-2.3 11.6-1.1 15.8 3 4.2 4.2 5.4 10.4 3 15.8L617.1 607.1c-1.9 4.5-5.5 8-10 10L288.5 754.3c-1.8 0.7-3.7 1.1-5.6 1.1z m-4.4-16.2zM732 292L424.4 424.4 292 732l307.6-132.4L732 292z" fill="#3B94FF" /><path d="M512 512m-19.1 0a19.1 19.1 0 1 0 38.2 0 19.1 19.1 0 1 0-38.2 0Z" fill="#3B94FF" /></svg>